<?xml version="1.0" standalone="no"?>
<!DOCTYPE svg PUBLIC "-//W3C//DTD SVG 20010904//EN"
 "http://www.w3.org/TR/2001/REC-SVG-20010904/DTD/svg10.dtd">
<svg version="1.0" xmlns="http://www.w3.org/2000/svg"
 width="145.000000pt" height="152.000000pt" viewBox="0 0 145.000000 152.000000"
 preserveAspectRatio="xMidYMid meet">

<g transform="translate(0.000000,152.000000) scale(0.100000,-0.100000)"
fill="#000000" stroke="none">
<path d="M77 1443 c-4 -3 7 -14 23 -24 l30 -19 0 -161 c0 -159 -7 -199 -35
-199 -7 0 -17 -5 -21 -11 -4 -8 35 -10 137 -7 173 4 211 18 256 95 23 40 28
59 27 114 -1 147 -104 219 -314 219 -53 0 -100 -3 -103 -7z m238 -42 c46 -20
102 -79 111 -117 4 -14 4 -48 2 -75 -9 -92 -88 -159 -185 -159 l-53 0 0 33 c0
17 -3 93 -7 169 -3 75 -3 143 0 152 9 22 81 21 132 -3z"/>
<path d="M490 1439 c0 -4 11 -10 25 -13 15 -4 30 -18 35 -32 6 -14 10 -97 10
-184 l0 -159 -27 -15 c-27 -14 -25 -14 50 -18 80 -3 92 1 55 17 -23 10 -23 11
-20 190 2 104 8 185 14 193 6 6 19 12 29 12 11 0 19 5 19 10 0 7 -34 10 -95 8
-52 -2 -95 -6 -95 -9z"/>
<path d="M720 1443 c48 -18 50 -25 50 -225 l0 -188 -25 -10 c-14 -5 -25 -11
-25 -13 0 -1 31 -2 70 -2 38 0 70 2 70 4 0 2 -7 9 -15 15 -10 7 -15 34 -17 81
l-3 70 57 7 c68 9 108 28 138 65 18 23 21 38 18 80 -8 98 -55 123 -220 122
-62 0 -106 -3 -98 -6z m193 -27 c112 -47 88 -189 -35 -203 l-45 -5 -6 47 c-4
26 -7 76 -7 111 l0 64 30 0 c17 0 45 -6 63 -14z"/>
<path d="M1085 1435 c-7 -22 -13 -85 -10 -85 3 0 12 14 20 31 15 28 19 30 68
27 l52 -3 3 -191 2 -190 -37 -11 c-33 -9 -26 -11 62 -11 95 0 98 0 68 14 l-33
14 0 190 0 190 55 0 c41 0 55 4 55 14 0 12 -27 16 -151 18 -95 2 -153 -1 -154
-7z"/>
<path d="M800 958 c0 -3 14 -9 31 -13 17 -4 33 -13 36 -20 5 -14 -113 -206
-126 -204 -7 0 -131 192 -131 203 0 4 15 13 33 21 30 13 27 14 -68 14 -83 -1
-95 -3 -72 -12 20 -8 52 -49 113 -143 l85 -132 -3 -63 c-3 -56 -6 -65 -28 -76
-22 -11 -15 -13 60 -12 84 1 84 1 51 15 -33 15 -33 15 -29 73 4 53 12 70 92
194 63 97 95 138 114 145 21 8 8 10 -66 13 -50 2 -92 1 -92 -3z"/>
<path d="M244 885 c-21 -6 -49 -17 -62 -24 -34 -18 -82 -90 -82 -123 0 -26 3
-29 27 -26 21 2 29 10 36 38 17 70 93 119 163 105 45 -8 100 -57 115 -102 15
-46 7 -138 -16 -186 -10 -21 -34 -50 -53 -65 -29 -22 -46 -27 -94 -27 -57 0
-77 -12 -38 -22 12 -3 20 -14 20 -28 0 -38 35 -59 103 -63 45 -3 67 1 82 12
19 15 18 15 -12 5 -55 -18 -123 15 -123 60 0 6 7 11 15 11 51 0 143 80 172
149 22 52 12 142 -21 192 -51 77 -152 118 -232 94z"/>
<path d="M1260 840 c0 -4 11 -11 25 -14 17 -4 25 -13 25 -29 0 -33 11 -67 21
-67 5 0 9 20 9 45 0 31 5 47 15 51 29 12 14 19 -40 20 -30 1 -55 -2 -55 -6z"/>
<path d="M950 835 c0 -3 11 -10 25 -15 l25 -10 0 -157 c0 -188 8 -209 87 -239
56 -22 154 -25 160 -6 3 8 -7 12 -34 12 -48 0 -117 31 -136 62 -17 27 -33 304
-18 326 5 8 24 18 42 22 26 6 11 8 -58 9 -51 1 -93 -1 -93 -4z"/>
<path d="M540 471 c0 -4 14 -12 30 -18 l30 -11 0 -186 0 -186 -30 -7 c-74 -14
-29 -23 123 -23 l164 0 21 72 c12 39 20 73 17 76 -2 2 -16 -21 -32 -52 l-27
-56 -83 0 -83 0 0 80 0 80 68 0 c65 0 70 -2 81 -26 16 -36 24 -25 10 15 -8 24
-8 39 1 62 15 36 8 48 -9 15 -13 -24 -51 -36 -119 -36 l-33 0 3 86 3 86 80 2
80 1 5 -35 6 -35 6 35 c3 19 9 43 13 53 7 16 -3 17 -159 16 -91 0 -166 -4
-166 -8z"/>
</g>
</svg>
