<svg width="132" height="142" viewBox="0 0 132 142" fill="none" xmlns="http://www.w3.org/2000/svg">
<path d="M0.42193 1.19435C0.021355 1.49492 1.12294 2.59703 2.72524 3.59895L5.72955 5.5026V21.6335C5.72955 37.564 5.02854 41.5717 2.22452 41.5717C1.52351 41.5717 0.522074 42.0726 0.121499 42.6738C-0.279076 43.4753 3.62653 43.6757 13.8412 43.3751C31.1661 42.9744 34.9715 41.5717 39.478 33.8569C41.7813 29.8492 42.282 27.9456 42.1819 22.435C42.0817 7.70682 31.7669 0.493004 10.7367 0.493004C5.42912 0.493004 0.722361 0.793579 0.42193 1.19435ZM24.2561 5.40241C28.8627 7.40625 34.4708 13.3176 35.3721 17.1249C35.7727 18.5275 35.7727 21.9341 35.5724 24.6393C34.6711 33.8569 26.7597 40.5698 17.0458 40.5698H11.7382V37.2634C11.7382 35.5602 11.4377 27.9456 11.0372 20.331C10.7367 12.8166 10.7367 6.00356 11.0372 5.10183C11.9385 2.89761 19.1488 2.9978 24.2561 5.40241Z" fill="white"/>
<path d="M41.7656 1.5952C41.7656 1.99597 42.8672 2.59712 44.2692 2.8977C45.7714 3.29847 47.2735 4.70115 47.7742 6.10384C48.3751 7.50652 48.7757 15.8225 48.7757 24.5391V40.4697L46.0718 41.9725C43.3679 43.3752 43.5682 43.3752 51.079 43.776C59.0905 44.0766 60.2922 43.6758 56.5869 42.0727C54.2836 41.0708 54.2836 40.9706 54.584 23.0363C54.7843 12.6163 55.3852 4.50077 55.986 3.69923C56.5869 3.09808 57.8888 2.49693 58.8902 2.49693C59.9918 2.49693 60.7929 1.99597 60.7929 1.49501C60.7929 0.793667 57.388 0.493092 51.2793 0.693478C46.0718 0.89386 41.7656 1.29463 41.7656 1.5952Z" fill="white"/>
<path d="M64.8441 1.19408C69.651 2.99754 69.8512 3.69888 69.8512 23.7373V42.5733L67.3476 43.5752C65.9456 44.0762 64.8441 44.6774 64.8441 44.8777C64.8441 44.9779 67.9485 45.0781 71.8541 45.0781C75.6596 45.0781 78.8642 44.8777 78.8642 44.6774C78.8642 44.477 78.1632 43.7756 77.362 43.1745C76.3606 42.4731 75.8599 39.768 75.6596 35.0589L75.3591 28.0455L81.0673 27.3442C87.8771 26.4424 91.8829 24.5388 94.8872 20.8317C96.6898 18.5273 96.9902 17.0244 96.6898 12.8163C95.8886 2.99754 91.1819 0.492741 74.6581 0.592934C68.4492 0.592934 64.0429 0.893509 64.8441 1.19408ZM84.1718 3.89927C95.3879 8.60828 92.9845 22.8355 80.6668 24.2382L76.1603 24.7392L75.5594 20.0302C75.1589 17.4252 74.8584 12.4156 74.8584 8.90886V2.49658H77.8627C79.5652 2.49658 82.3692 3.09773 84.1718 3.89927Z" fill="white"/>
<path d="M101.362 1.99485C100.661 4.19907 100.06 10.5112 100.361 10.5112C100.661 10.5112 101.562 9.10847 102.363 7.40521C103.866 4.59984 104.266 4.39946 109.173 4.70004L114.381 5.00061L114.681 24.1373L114.881 43.1737L111.176 44.2758C107.871 45.1775 108.572 45.3779 117.385 45.3779C126.899 45.3779 127.199 45.3779 124.195 43.9752L120.89 42.5726V23.5361V4.49965H126.398C130.504 4.49965 131.906 4.09888 131.906 3.09697C131.906 1.89466 129.202 1.49389 116.784 1.29351C107.27 1.09313 101.462 1.3937 101.362 1.99485Z" fill="white"/>
<path d="M72.837 49.7871C72.837 50.0877 74.239 50.6888 75.9414 51.0896C77.6439 51.4904 79.2462 52.3921 79.5466 53.0934C80.0473 54.4961 68.2304 73.733 66.9285 73.5326C66.2275 73.5326 53.8097 54.2957 53.8097 53.1936C53.8097 52.7929 55.3118 51.8911 57.1144 51.0896C60.1187 49.7871 59.8183 49.6869 50.3046 49.6869C41.9927 49.7871 40.791 49.9875 43.0943 50.8892C45.0972 51.6908 48.3018 55.7986 54.4105 65.2167L62.9227 78.442L62.6223 84.7541C62.3219 90.3648 62.0215 91.2665 59.8183 92.3687C57.6151 93.4708 58.3161 93.6711 65.8269 93.571C74.239 93.4708 74.239 93.4708 70.9342 92.0681C67.6295 90.5652 67.6295 90.5652 68.0301 84.7541C68.4306 79.4439 69.2318 77.7406 77.2433 65.3168C83.5523 55.5982 86.7569 51.4904 88.6597 50.789C90.7627 49.9875 89.4608 49.7871 82.0502 49.4865C77.043 49.2861 72.837 49.3863 72.837 49.7871Z" fill="white"/>
<path d="M17.1394 57.0997C15.0364 57.7009 12.2324 58.803 10.9305 59.5043C7.52565 61.3078 2.71875 68.5216 2.71875 71.8279C2.71875 74.4329 3.01918 74.7335 5.42263 74.4329C7.52565 74.2325 8.3268 73.431 9.0278 70.6256C10.7302 63.6122 18.3412 58.7028 25.3512 60.1055C29.8577 60.907 35.3656 65.8164 36.8677 70.325C38.3699 74.9339 37.5688 84.1515 35.2654 88.9607C34.264 91.0648 31.8606 93.9703 29.9578 95.4732C27.0537 97.6774 25.3512 98.1784 20.5443 98.1784C14.8361 98.1784 12.8333 99.3807 16.7389 100.383C17.9406 100.683 18.7417 101.785 18.7417 103.188C18.7417 106.995 22.2468 109.099 29.0565 109.5C33.563 109.801 35.7662 109.4 37.2683 108.298C39.1711 106.795 39.0709 106.795 36.0666 107.797C30.5587 109.6 23.7489 106.294 23.7489 101.785C23.7489 101.184 24.4499 100.683 25.2511 100.683C30.3584 100.683 39.5716 92.6678 42.4758 85.7546C44.679 80.5446 43.6775 71.5273 40.3728 66.5177C35.2654 58.803 25.1509 54.6951 17.1394 57.0997Z" fill="white"/>
<path d="M118.883 61.6117C118.883 62.0125 119.984 62.7138 121.386 63.0144C123.089 63.4152 123.89 64.3169 123.89 65.92C123.89 69.2263 124.992 72.6328 125.993 72.6328C126.494 72.6328 126.894 70.629 126.894 68.1242C126.894 65.0182 127.395 63.4152 128.396 63.0144C131.301 61.8121 129.798 61.1107 124.391 61.0106C121.386 60.9104 118.883 61.2109 118.883 61.6117Z" fill="white"/>
<path d="M87.8594 62.111C87.8594 62.4116 88.961 63.113 90.363 63.6139L92.8666 64.6158V80.346C92.8666 99.182 93.6677 101.286 101.579 104.292C107.187 106.496 117.001 106.797 117.602 104.893C117.902 104.091 116.901 103.691 114.197 103.691C109.39 103.691 102.48 100.585 100.578 97.4788C98.8752 94.7736 97.2729 67.0205 98.775 64.8162C99.2758 64.0147 101.178 63.0128 102.981 62.612C105.585 62.0109 104.083 61.8105 97.1727 61.7103C92.0654 61.6101 87.8594 61.8105 87.8594 62.111Z" fill="white"/>
<path d="M46.7545 98.581C46.7545 98.9817 48.1565 99.7833 49.7588 100.384L52.7632 101.487V120.122V138.758L49.7588 139.459C42.3482 140.862 46.8547 141.764 62.0765 141.764H78.5001L80.6031 134.55C81.8048 130.642 82.606 127.236 82.3055 126.935C82.1053 126.735 80.7032 129.039 79.1009 132.145L76.3971 137.756H68.0851H59.7732V129.741V121.725H66.583C73.0923 121.725 73.593 121.926 74.6946 124.33C76.2969 127.937 77.0981 126.835 75.6961 122.827C74.8949 120.423 74.8949 118.92 75.7962 116.616C77.2984 113.009 76.5974 111.806 74.8949 115.113C73.593 117.517 69.7876 118.72 62.9778 118.72H59.6731L59.9735 110.103L60.2739 101.487L68.2854 101.286L76.2969 101.186L76.7976 104.693L77.3985 108.199L77.9994 104.693C78.2998 102.789 78.9007 100.384 79.3012 99.3825C80.0022 97.7794 79.0008 97.6792 63.3784 97.7794C54.2653 97.7794 46.7545 98.1802 46.7545 98.581Z" fill="white"/>
</svg>
