<svg width="23" height="21" viewBox="0 0 23 21" fill="none" xmlns="http://www.w3.org/2000/svg">
<path d="M7.69922 20.7368C8.52765 20.7368 9.19922 20.0652 9.19922 19.2368C9.19922 18.4084 8.52765 17.7368 7.69922 17.7368C6.87079 17.7368 6.19922 18.4084 6.19922 19.2368C6.19922 20.0652 6.87079 20.7368 7.69922 20.7368Z" fill="white"/>
<path d="M17.5 20.7368C18.3284 20.7368 19 20.0652 19 19.2368C19 18.4084 18.3284 17.7368 17.5 17.7368C16.6716 17.7368 16 18.4084 16 19.2368C16 20.0652 16.6716 20.7368 17.5 20.7368Z" fill="white"/>
<path d="M4.2 5.6371H21.1L18.6 14.3371C18.4 14.9371 17.8 15.4371 17.2 15.4371H8.2C7.5 15.4371 6.9 15.0371 6.8 14.3371L3.3 2.4371C3.2 2.1371 2.9 1.8371 2.5 1.9371H1" stroke="white" stroke-width="2" stroke-linecap="round" stroke-linejoin="round"/>
</svg>
